<svg xmlns="http://www.w3.org/2000/svg" viewBox="0 0 943.55 674.49"><defs><style>.cls-1{fill:#8ec54b;}.cls-1,.cls-10,.cls-11,.cls-2,.cls-3,.cls-4,.cls-5,.cls-6,.cls-7,.cls-8,.cls-9{stroke:#231f20;stroke-miterlimit:10;}.cls-1,.cls-11,.cls-2,.cls-3,.cls-4,.cls-5,.cls-6,.cls-7,.cls-8{stroke-width:2px;}.cls-2{fill:#eba5c9;}.cls-3{fill:#1ca8df;}.cls-4{fill:#faaf50;}.cls-5{fill:#808285;}.cls-6{fill:#939598;}.cls-10,.cls-7{fill:none;}.cls-8,.cls-9{fill:#231f20;}.cls-11{fill:#e82531;}</style></defs><title>Asset 3</title><g id="Layer_2" data-name="Layer 2"><g id="Tentilla-03"><path id="pedicle" class="cls-1" d="M873.74,94.67c-14,.65-42.81-.9-60.67-3.34-13.62-1.85-6-11.33-17.33-2.66s-23.93,33.8-31,42.66-27.45,31.46-32.38,38.34-5,4.51,25.35,2.15c22.89-1.77,62.65,1.44,87.32,6.18,23.77,4.57,69.59,10,91,53a1.45,1.45,0,0,0,2.74-.54c7.13-93.56,2.14-138.13.22-150.63a1.13,1.13,0,0,0-2.13-.33C934.16,84.86,909.74,93,873.74,94.67Z"/><path id="elasticStrand" class="cls-2" d="M379.23,262.32c2,10,109.17-23.47,142.51-34.42s76-27.62,105.33-34,91-18.36,110.82-20.24,32.31-9.57,34.27-18.4c2.44-11,10.37-39.52-9.63-32.19s-53,29.17-80.13,39.17c-29.32,10.8-130,39-152.66,45.82S376.68,249.65,379.23,262.32Z"/><path id="involucrum" class="cls-3" d="M770.24,1c-20.3,1.16-5.46,52.48-5.46,98,0,39-24.43,98-9.71,98,19.79,0,54.23-41.43,54.25-99.64C809.34,42.72,780.42.42,770.24,1Z"/><path id="cnidoband-1" class="cls-4" d="M405.2,274c23.22-9,42.13-40.42,24.55-84.43C410.23,140.67,389,110.33,321.2,103.33S202.43,117,174.42,130s-73.09,62-78,82.36c42,17.39,250.14,58.57,272.07,61.61S405.2,274,405.2,274Z"/><g id="Copepod"><path id="main-bod" class="cls-5" d="M108.61,244.75s77,60.68,111.85,80.58c34.55,19.72,81.2,30.86,106.46,20.93C348.5,337.78,383.8,297,361.84,250S282,196.74,261.23,194.17c-24-3-132.18-3.31-132.18-3.31s-9.27,15.24-13.56,26.7C108.45,236.4,108.61,244.75,108.61,244.75Z"/><path class="cls-6" d="M122.68,202.14s-13.86-10.28-17.85-11.74c-6-2.21-10.63.09-13.7,4S83.19,217.87,83,222.69c-.21,4.45,2.74,9,8.53,10,4.73.84,18.79,1.39,18.79,1.39s.75-4.16,5.19-16.53C119.58,206.17,122.68,202.14,122.68,202.14Z"/><path class="cls-6" d="M89,196.89s-14.27-7.8-16.82-9c-3.83-1.88-9.77-3-11.73,1.63s-2.93,14.73-3.26,18c-.47,4.46,1.92,9.65,7.68,10.24,4.4.45,18.56-.68,18.56-.68S85,210.05,86,206.26,89,196.89,89,196.89Z"/><path class="cls-6" d="M59.76,191.38s-7.29-3.89-10.69-4.7c-4-.94-8.14-.89-9.92,1.94s-2.22,10-2,12.7c.27,3.52,3.74,6.1,8.85,6.87,3,.45,11.2-.75,11.2-.75s.67-6.27,1-8.36S59.76,191.38,59.76,191.38Z"/><path class="cls-6" d="M37.46,194.51s-11.8-3-17.15-2.57c-9.08.77-16,6.3-17.72,8.5-1.91,2.41-1.94,8.48,2.78,10.48s11.81,1.56,16,.84c5.24-.91,16.16-7.85,16.16-7.85a37.88,37.88,0,0,1-.45-4.17C37.11,198.64,37.46,194.51,37.46,194.51Z"/><path class="cls-6" d="M39.1,188s-8.94-8.24-14-10.14c-8.53-3.23-17.23-2.81-19.81-1.7C1.39,177.89-.9,184.66,3.07,189c3.47,3.76,10,6.5,14.09,7.66,5.12,1.45,20.1.72,20.1.72s.29-3.09.4-4.11S39.1,188,39.1,188Z"/><g id="stripes"><path class="cls-7" d="M237.65,334s-1.6-27.8,10.38-69.82c13.74-48.18,24.3-68.55,24.3-68.55"/><path class="cls-7" d="M189.39,305.12s2.72-32.18,13.63-64.7a468.3,468.3,0,0,1,19.47-48.26"/><path class="cls-7" d="M146.24,273.66s-2.12-16.88,8.79-49.39c8.69-25.91,14.42-33.08,14.42-33.08"/></g><g id="Side-spikes"><path class="cls-5" d="M263.71,194.48s1.43-9.82.52-17.08c-.87-6.9-4.25-15.75-7.7-16.88a1.08,1.08,0,0,0-1.4,1.21c.39,2.45,1.18,8.41.37,12.53-1,5.29-2.54,14.93-7.16,18.9C253.42,193.48,263.71,194.48,263.71,194.48Z"/><path class="cls-5" d="M301.21,202s5.1-8.62,8.21-12.74c1.78-2.36,6.56-8.84,9.54-10,1.31-.52,2.63.07,2.13,1.37-.65,1.69-4.09,5.51-6,11.73a119.25,119.25,0,0,0-3.22,13.37Z"/><path class="cls-5" d="M218.61,324.26s-6,7.55-11.65,11.66c-6,4.33-11.39,6.42-14.81,5.2a1.09,1.09,0,0,1-.37-1.82,92.49,92.49,0,0,0,7.67-7.62c2.78-3.24,7.62-8.59,9.47-13.34C213.13,321.21,218.61,324.26,218.61,324.26Z"/><path class="cls-5" d="M266.61,344.94a66,66,0,0,1-.89,10.65c-.74,3.34-3.16,11.28-3.83,13.44a.52.52,0,0,0,.47.68c1.12.06,3.66-.41,7.29-4.66,5-5.85,9.23-17.1,9.23-17.1Z"/></g><circle class="cls-8" cx="345.01" cy="296.63" r="5"/><path id="Antenna_Left" class="cls-5" d="M368.49,274a52.42,52.42,0,0,0,27.83-15c11.41-11.66,20-29.66,20.87-36.61a.65.65,0,0,0-1.16-.5c-4.18,5.37-14.12,19.26-23.95,24.67-10.9,6-21.44,6.56-28.21,8.18C365.74,260.13,368.49,274,368.49,274Z"/><path class="cls-9" d="M393.21,262.8s10.43,1.23,11.85.47-8.28-1.35-10.46-2.08Z"/><path class="cls-9" d="M404.63,249.41s12.56-5.45,11.09-5.61c-2-.22-7.24,2.68-8.84,3.12Z"/><path class="cls-9" d="M383.44,249.36s3.35-9.09,4.39-10.15c1.27-1.29-2.08,10.08-2.08,10.08Z"/><path class="cls-9" d="M400.09,240s1.49-9.89,2.47-10.2S402,238,402,238Z"/><path class="cls-9" d="M370.64,340.17s-2.63,9.54-1.54,9.77c.56.12,2.74-6.82,2.74-6.82Z"/><path class="cls-9" d="M377.4,355.82s-2,7.24-1.41,7.77,2.64-6.13,2.64-6.13Z"/><path class="cls-9" d="M385.38,351.79a42.19,42.19,0,0,1,6.41.66c3.09.62,4.15,1,4.46.54s-1.28-1.47-4.83-2.42a31.46,31.46,0,0,0-6.5-.9Z"/><path class="cls-9" d="M379.64,334.57s8.22.48,8.56-.3-9.34-1.43-9.34-1.43Z"/><path id="Antenna_Right" class="cls-5" d="M355.05,322.64s10.48,8.14,16.92,19.79a134.84,134.84,0,0,1,11.74,30,.85.85,0,0,0,1.67-.05c1.21-7,1.74-21.51-3.78-33.74-7.38-16.34-15.8-24.81-20-27.81C358.59,316.44,355.05,322.64,355.05,322.64Z"/><path class="cls-10" d="M382.65,342.44s-4.53,5.75-6.91,5.93"/><path class="cls-10" d="M373.93,324.68c-1.11,2.54-5.92,8.05-7.94,8.37"/><path class="cls-10" d="M388,266.15c.33-2.7-3.6-13.93-5.65-15.46"/><path class="cls-10" d="M402.58,251.64c.1-2.56-3.43-7.9-5.37-8.61"/></g><path id="cnidoband-2" class="cls-4" d="M113.17,184.13s-29.63,40.64-38.08,72.2C59.15,315.82,83,439,164.42,473c94.27,39.35,207.14-9,201.57-70-2-22.17-9.7-34-54.79-43.28-4.59-.94-63.42,7-86.64-30.86-43.14-70.44,26.21-138.56,24-136.86"/><path class="cls-11" d="M173.42,647.33c0,10.67,12.19,14.65,16.67,4.24,16.85-39.17,43.08-146.75,48.48-166.24,5.74-20.67,28.14-98.5,34.09-125.63,1.43-6.51-7.57-17.26-14.91-8.27-16.82,20.62-41.33,125.9-46,143.24S173.45,628.89,173.42,647.33Z"/><path class="cls-11" d="M226.9,660.58c1.25,10.59,13.84,13.1,17,2.23C256.05,621.92,269.33,512,272.38,492c3.25-21.21,16.26-101.14,18.94-128.78.65-6.64-9.56-16.24-15.78-6.45-14.25,22.47-26.11,129.92-28.68,147.68S224.75,642.27,226.9,660.58Z"/><path class="cls-11" d="M272.9,665c2.15,10.45,14.91,11.88,17.18.77,8.58-41.77,12.47-152.43,13.81-172.61,1.43-21.41,7.6-102.16,7.93-129.93.08-6.67-10.91-15.37-16.27-5.08-12.29,23.6-15,131.67-16,149.58S269.2,646.94,272.9,665Z"/></g></g></svg>