<svg xmlns="http://www.w3.org/2000/svg" viewBox="0 0 938.15 534.36"><defs><style>.cls-1{fill:#808285;}.cls-1,.cls-10,.cls-11,.cls-2,.cls-3,.cls-4,.cls-5,.cls-6,.cls-7,.cls-8,.cls-9{stroke:#231f20;stroke-miterlimit:10;}.cls-1,.cls-10,.cls-11,.cls-2,.cls-3,.cls-4,.cls-7,.cls-8,.cls-9{stroke-width:2px;}.cls-2{fill:#939598;}.cls-3,.cls-6{fill:none;}.cls-4,.cls-5{fill:#231f20;}.cls-7{fill:#8ec54b;}.cls-8{fill:#f0e86c;}.cls-9{fill:#faaf50;}.cls-10{fill:#1ca8df;}.cls-11{fill:#e82531;}</style></defs><title>Asset 1</title><g id="Layer_2" data-name="Layer 2"><g id="Tentilla-01"><g id="Copepod-01"><path id="main-bod" class="cls-1" d="M219.57,409.77s-4.23-97.93-11.9-137.35c-7.59-39.05-29.58-81.67-53.58-94.33-20.51-10.83-74.42-11-95.75,36.33s11.72,95.25,23.33,112.67c13.41,20.12,83.72,102.34,83.72,102.34s17.59-2.91,29.08-7.14C213.34,415.34,219.57,409.77,219.57,409.77Z"/><path class="cls-2" d="M178.09,426.9s1.26,17.21,2.75,21.19c2.25,6,7,8,12,7.75s22.94-9.28,26.73-12.25c3.5-2.75,5-7.94,2-13-2.45-4.14-11.21-15.15-11.21-15.15s-3.63,2.14-15.91,6.85C183.17,426.61,178.09,426.9,178.09,426.9Z"/><path class="cls-2" d="M196.09,455.86s3.4,15.91,4.11,18.65c1.08,4.13,4.14,9.33,8.89,7.83s13.07-7.39,15.75-9.25c3.69-2.57,6.06-7.75,2.75-12.5C225.06,457,215,447,215,447s-6.31,3.31-9.81,5.06S196.09,455.86,196.09,455.86Z"/><path class="cls-2" d="M211,481.6s1.81,8.06,3.42,11.17c1.88,3.63,4.63,6.75,7.94,6.25s9-4.81,10.94-6.75c2.5-2.5,2.18-6.81-.57-11.18-1.61-2.57-7.87-8-7.87-8s-5.19,3.58-7,4.69S211,481.6,211,481.6Z"/><path class="cls-2" d="M227.91,496.46s5.4,10.91,9.23,14.67c6.51,6.39,15.2,8,18,7.89,3.06-.12,7.69-4.06,6.13-8.93s-6.52-10-9.82-12.69c-4.1-3.38-16.48-7.13-16.48-7.13a38,38,0,0,1-2.87,3.06C231.26,494,227.91,496.46,227.91,496.46Z"/><path class="cls-2" d="M221.91,499.45s-.41,12.15,1.43,17.2c3.11,8.57,9.11,14.89,11.64,16.12,3.86,1.88,10.48-.81,11.16-6.63.6-5.09-1.58-11.81-3.38-15.68-2.24-4.82-12.57-15.7-12.57-15.7s-2.53,1.79-3.37,2.37A53.16,53.16,0,0,1,221.91,499.45Z"/><g id="stripes"><path class="cls-3" d="M203,253.74s-20,19.35-59.69,37.68c-45.48,21-67.81,26.3-67.81,26.3"/><path class="cls-3" d="M212.63,309.16S186.45,328.09,154.7,341a469.72,469.72,0,0,1-49.28,16.73"/><path class="cls-3" d="M216.93,362.38S205.52,375,173.76,388c-25.31,10.31-34.48,10.65-34.48,10.65"/></g><g id="Side-spikes"><path class="cls-1" d="M80.29,325S71.91,330.32,67,335.75c-4.66,5.17-9.17,13.5-7.77,16.85a1.09,1.09,0,0,0,1.83.28c1.6-1.9,5.61-6.39,9.25-8.46,4.69-2.67,13-7.81,19-6.91C86.23,333.46,80.29,325,80.29,325Z"/><path class="cls-1" d="M61.49,291.71s-9.86,1.75-15,2.08c-2.95.19-11,.8-13.81-.7-1.24-.66-1.66-2-.34-2.51,1.7-.61,6.84-.49,12.83-3.07a119.82,119.82,0,0,0,12.24-6.28Z"/><path class="cls-1" d="M208.07,274.53s9.64-.38,16.43,1.22c7.19,1.7,12.3,4.45,13.61,7.84a1.09,1.09,0,0,1-1.14,1.46,92.66,92.66,0,0,0-10.78-.85c-4.27,0-11.49-.17-16.29,1.53C209.33,280.67,208.07,274.53,208.07,274.53Z"/><path class="cls-1" d="M192.42,224.66a67.26,67.26,0,0,1,8.66-6.28c3-1.62,10.61-5,12.69-5.86a.52.52,0,0,0,.2-.8c-.68-.89-2.69-2.51-8.28-2.49-7.7,0-19,4.16-19,4.16Z"/></g><circle class="cls-4" cx="104.67" cy="196.75" r="5"/><path id="Antenna_Left" class="cls-1" d="M72.18,193.74a52.45,52.45,0,0,0-29.51-11.32c-16.28-1-35.52,4.2-41.37,8.06a.66.66,0,0,0,.39,1.21c6.79-.34,23.81-1.87,34.32,2.05,11.66,4.35,19,12,24.6,16C63.48,204.85,72.18,193.74,72.18,193.74Z"/><path class="cls-5" d="M47.59,182.28s-5.88-8.7-7.38-9.28,4.38,7.16,5.25,9.28Z"/><path class="cls-5" d="M30,182.37s-12.32-6-11.49-4.75c1.14,1.65,6.75,3.74,8.13,4.66Z"/><path class="cls-5" d="M43.78,198.46s-9.08,3.39-10.57,3.29c-1.8-.12,9-5,9-5Z"/><path class="cls-5" d="M25.79,192s-8.47,5.32-9.35,4.78,6.63-5,6.63-5Z"/><path class="cls-5" d="M120.94,148.92s9-4.23,8.42-5.21c-.27-.5-7,2.38-7,2.38Z"/><path class="cls-5" d="M128.4,133.59s6.81-3.19,6.81-4-6.37,2-6.37,2Z"/><path class="cls-5" d="M120.14,130.17a42.79,42.79,0,0,1-3.68-5.29c-1.55-2.74-2-3.79-2.5-3.73s-.28,1.93,1.32,5.24a30.53,30.53,0,0,0,3.56,5.51Z"/><path class="cls-5" d="M110.84,145.75s-5-6.54-5.81-6.29,5,8,5,8Z"/><path id="Antenna_Right" class="cls-1" d="M117.84,172.17s-.67-13.25,4-25.73a135.35,135.35,0,0,1,15.11-28.5.85.85,0,0,0-1.13-1.23c-6.12,3.68-17.43,12.71-23.1,24.88-7.57,16.25-8.5,28.15-8,33.33C110.83,173.53,117.84,172.17,117.84,172.17Z"/><path class="cls-6" d="M114.84,138.34s7.31-.32,9,1.37"/><path class="cls-6" d="M107.06,156.53c2.65-.82,10-.76,11.53.56"/><path class="cls-6" d="M53.5,184c-2.25,1.52-8.2,11.82-8,14.38"/><path class="cls-6" d="M33,182.46c-2,1.59-3.75,7.76-3,9.69"/></g><path id="pedicle" class="cls-7" d="M868.34,97.75c-14.05.65-42.81-.89-60.67-3.33-13.62-1.86-6-11.33-17.33-2.67s-23.93,33.81-31,42.67S731.93,165.87,727,172.75s-5,4.51,25.35,2.16c22.89-1.77,62.65,1.44,87.32,6.18,23.77,4.56,69.59,10,91,52.95a1.45,1.45,0,0,0,2.74-.53c7.13-93.56,2.14-138.13.22-150.63a1.13,1.13,0,0,0-2.13-.33C928.76,88,904.34,96.09,868.34,97.75Z"/><path id="TF-2" class="cls-8" d="M137.59,398.59c-4.75,3-13,15.25-5,21.25s27.75,2.5,47.25-6.25,40.63-25.14,50-34.5c8.34-8.34,5.78-17.29,2.26-22.39s-9.26-6.36-12.51-5.11-.75,10.75-4.25,14.75-23.27,18.21-33.87,24.5c-9.63,5.7-26.21,17.62-32.71,16.62S137.59,398.59,137.59,398.59Z"/><path id="TF-1" class="cls-8" d="M368.34,254.09c-17.94-1.46-45.88-17.19-51.44-5.1s-16.17,25.81-28.56,36.1c-11.37,9.42-56.5,37-72.5,44.5s-71.38,30.87-84,32.5c-11.91,1.53-23.67.17-26.42-4.33-7.5,5-9.33,11.2-5.83,14.45s20.75,11.88,45.5,8.88,87.25-23.25,99.5-29.5,68.5-30,82.25-37,60.82-32.4,69.75-36.25c12.63-5.45,33.65-16.4,46.75-20C429.36,255.16,382.7,255.25,368.34,254.09Z"/><path id="cnidoband" class="cls-9" d="M436,260.7c-25.5,9-85.33,24.76-109.49,0-32.15-32.95-40.5-93,33-153S551,12,590.47,5.71c58.53-9.29,157.5-7.5,189,30s28.5,97.5,7.5,121.5-158.77,46.88-210,60C547,224.88,436,260.7,436,260.7Z"/><path id="involucrum" class="cls-10" d="M780.11,3.92C759.79,4.61,783,56.49,782,102c-.92,39-37,93.48-27,93.72,19.79.47,60.6-36.35,62-94.54C818.21,46.55,790.3,3.58,780.11,3.92Z"/><path id="HeteronemeC" class="cls-11" d="M745.09,124.58c.27,10.14-108.76,41.12-149.12,51.19S425.41,224,421,212.46,541.66,167,569.48,160.73,744.72,111.19,745.09,124.58Z"/><path id="HeteronemeB" class="cls-11" d="M752.35,143.28c.27,10.13-108.75,41.12-149.12,51.19S425.3,244.84,420.93,233.3s128-47.66,155.81-53.88S752,129.89,752.35,143.28Z"/><path id="HeteronemeA" class="cls-11" d="M753.18,165.09c.27,10.13-102.55,39.16-142.92,49.23s-177.7,50.37-182.07,38.83S556,205.49,583.77,199.27,752.82,151.7,753.18,165.09Z"/></g></g></svg>