<svg xmlns="http://www.w3.org/2000/svg" viewBox="0 0 937.84 706.83"><defs><style>.cls-1{fill:#f0e86c;}.cls-1,.cls-10,.cls-11,.cls-12,.cls-2,.cls-3,.cls-4,.cls-5,.cls-6,.cls-7,.cls-8,.cls-9{stroke:#231f20;stroke-miterlimit:10;}.cls-1,.cls-10,.cls-11,.cls-12,.cls-2,.cls-3,.cls-4,.cls-5,.cls-8,.cls-9{stroke-width:2px;}.cls-2{fill:#808285;}.cls-3{fill:#939598;}.cls-4,.cls-7{fill:none;}.cls-5,.cls-6{fill:#231f20;}.cls-8{fill:#8ec54b;}.cls-9{fill:#eba5c9;}.cls-10{fill:#1ca8df;}.cls-11{fill:#faaf50;}.cls-12{fill:#e82531;}</style></defs><title>Asset 2</title><g id="Layer_2" data-name="Layer 2"><g id="Tentilla-02"><path id="TF-1" class="cls-1" d="M383.36,451.34c-18,7.33-43,51.47-48,65.54-12.49,35.6-30.8,52.89-30.8,52.89s-1.29-2.43-5.17-8.83c-9.45-15.62,11.09-57.76,10.6-63.08-1.33-14.67-8.65-30-2.65-40s9.32-39.7,16.65-45.19S383.36,451.34,383.36,451.34Z"/><g id="Copepod-02"><g id="Copepod-02-2" data-name="Copepod-02"><path id="main-bod" class="cls-2" d="M116.77,640.2s94-27.73,130.43-44.68c36.06-16.78,72.12-48.4,78.62-74.75,5.56-22.51-7.27-74.87-58.35-84.16S177.86,471,163.75,486.43C147.46,504.3,84.63,592.37,84.63,592.37s7.07,16.37,13.94,26.49C109.87,635.5,116.77,640.2,116.77,640.2Z"/><path class="cls-3" d="M90.14,604.08s-16.39,5.37-19.89,7.78c-5.28,3.63-6.08,8.72-4.63,13.51s14.54,20,18.34,23c3.51,2.73,8.91,2.95,13.1-1.18,3.42-3.38,12-14.53,12-14.53s-3-3-10.49-13.79C91.65,608.94,90.14,604.08,90.14,604.08Z"/><path class="cls-3" d="M66.38,628.53S51.76,635.67,49.27,637c-3.74,2-8.05,6.27-5.45,10.51s10.33,10.91,12.78,13.06c3.37,3,9,4,12.79-.35,2.91-3.33,10.18-15.54,10.18-15.54s-4.74-5.32-7.28-8.3S66.38,628.53,66.38,628.53Z"/><path class="cls-3" d="M45,649.2s-7.38,3.7-10,6c-3.06,2.69-5.43,6.11-4.15,9.21s6.85,7.57,9.19,9c3,1.83,7.14.48,10.72-3.24,2.11-2.19,5.87-9.57,5.87-9.57s-4.73-4.17-6.24-5.65S45,649.2,45,649.2Z"/><path class="cls-3" d="M34.65,669.2s-9.28,7.88-12,12.51c-4.63,7.85-4.1,16.68-3.31,19.38.86,2.94,5.8,6.48,10.15,3.78s8.11-8.73,10-12.58c2.29-4.8,2.93-17.72,2.93-17.72a39.32,39.32,0,0,1-3.66-2C37.81,671.88,34.65,669.2,34.65,669.2Z"/><path class="cls-3" d="M30.31,664.11S18.42,666.64,14,669.64C6.39,674.73,1.7,682.07,1.12,684.82c-.89,4.2,3.32,10,9.13,9.24,5.08-.65,11.08-4.38,14.4-7.06,4.14-3.34,12.21-16,12.21-16s-2.35-2-3.12-2.7A52.92,52.92,0,0,1,30.31,664.11Z"/><g id="stripes"><path class="cls-4" d="M264.2,586.52s-23.6-14.77-51-48.85c-31.37-39.06-41.88-59.46-41.88-59.46"/><path class="cls-4" d="M212.74,609.2s-24.68-20.84-44.9-48.54a466.76,466.76,0,0,1-28.12-43.78"/><path class="cls-4" d="M162.13,626.21s-15-8-35.23-35.73c-16.11-22.07-18.65-30.89-18.65-30.89"/></g><g id="Side-spikes"><path class="cls-2" d="M165.43,484.59s-7.17-6.85-13.63-10.3c-6.13-3.28-15.31-5.65-18.22-3.48a1.09,1.09,0,0,0,.17,1.84c2.23,1.1,7.55,3.9,10.44,6.94,3.72,3.91,10.71,10.71,11.29,16.77C158.67,492.4,165.43,484.59,165.43,484.59Z"/><path class="cls-2" d="M193.22,458.31s-4.08-9.14-5.65-14.06c-.89-2.82-3.41-10.46-2.64-13.57.34-1.36,1.58-2.11,2.35-.94,1,1.5,2.13,6.52,6.07,11.71a119.48,119.48,0,0,0,9.05,10.36Z"/><path class="cls-2" d="M245.25,596.42s2.69,9.26,2.77,16.25c.09,7.38-1.34,13-4.32,15.09A1.09,1.09,0,0,1,242,627a92.61,92.61,0,0,0-1.78-10.67c-1-4.14-2.61-11.19-5.41-15.44C239.59,599.12,245.25,596.42,245.25,596.42Z"/></g><circle class="cls-5" cx="295.79" cy="477.31" r="5"/><path id="Antenna_Left" class="cls-2" d="M290.87,445.05a52.39,52.39,0,0,0,3.87-31.36c-2.91-16.06-12.65-33.46-17.8-38.2a.65.65,0,0,0-1.08.66c2,6.51,7.55,22.66,6.29,33.8-1.41,12.37-7,21.28-9.64,27.75C278,439.29,290.87,445.05,290.87,445.05Z"/><path class="cls-6" d="M296.06,418.43s7-7.8,7.23-9.4-5.89,6-7.74,7.33Z"/><path class="cls-6" d="M291.73,401.37s2.82-13.4,1.84-12.29c-1.33,1.49-2,7.45-2.57,9Z"/><path class="cls-6" d="M279.44,418.63s-5.48-8-5.74-9.46c-.32-1.78,7,7.53,7,7.53Z"/><path class="cls-6" d="M281.4,399.61s-7.21-6.94-6.89-7.92,6.45,5.23,6.45,5.23Z"/><path class="cls-6" d="M346.13,481.57s6.26,7.67,7.09,6.91c.42-.38-4-6.18-4-6.18Z"/><path class="cls-6" d="M362.81,485.11s4.74,5.84,5.53,5.64-3.48-5.7-3.48-5.7Z"/><path class="cls-6" d="M364.13,476.26a43.46,43.46,0,0,1,4.25-4.84c2.29-2.17,3.21-2.82,3-3.32s-1.94.19-4.77,2.53a31.26,31.26,0,0,0-4.49,4.79Z"/><path class="cls-6" d="M346.77,471s5.14-6.42,4.7-7.15-6.57,6.79-6.57,6.79Z"/><path id="Antenna_Right" class="cls-2" d="M322.82,484.16s12.7-3.84,25.92-2.37a135.29,135.29,0,0,1,31.31,7.79.85.85,0,0,0,.92-1.39c-5.05-5.05-16.54-13.85-29.72-16.42-17.59-3.42-29.37-1.46-34.27.28C319.81,477.69,322.82,484.16,322.82,484.16Z"/><path class="cls-7" d="M354.93,473.09s2.07,7,.84,9.07"/><path class="cls-7" d="M335.39,469.93c1.44,2.38,3.15,9.49,2.25,11.32"/><path class="cls-7" d="M295.8,424.59c-2-1.83-13.45-5.12-15.89-4.33"/><path class="cls-7" d="M292.37,404.32c-2-1.55-8.43-1.76-10.13-.59"/></g></g><path id="TF-3" class="cls-1" d="M108.25,558c-1.73-2.11-1.89-5.5-7.23-2.83s-10.33,14.58,0,32c8.06,13.58,21,30.67,40.34,37.49,27,9.5,58.18,1.1,66.16-3.67,8.65-5.16,7.34-15.16,7.34-15.16l-20.34-2.5s-33.25,7.13-55.66-5.17C125.53,590.87,106.44,564.41,108.25,558Z"/><path id="pedicle" class="cls-8" d="M868,275.58c-14,.65-42.8-.9-60.66-3.33-13.62-1.86-6-11.34-17.34-2.67s-23.92,33.81-30.95,42.67-27.46,31.45-32.38,38.33-5,4.51,25.35,2.16c22.88-1.78,62.65,1.43,87.32,6.17,23.77,4.57,69.59,10,91,53a1.45,1.45,0,0,0,2.74-.54c7.13-93.56,2.13-138.13.22-150.63a1.13,1.13,0,0,0-2.13-.32C928.44,265.78,904,273.91,868,275.58Z"/><path id="elasticStrand" class="cls-9" d="M373.52,443.23c2,10,109.17-23.47,142.5-34.42s76-27.62,105.34-33.95,91-18.37,110.82-20.24,32.31-9.58,34.27-18.41c2.44-11,10.36-39.52-9.64-32.18s-53,29.16-80.12,39.16c-29.32,10.8-130,39-152.67,45.82S371,430.56,373.52,443.23Z"/><path id="involucrum" class="cls-10" d="M764.53,181.92c-20.3,1.16-5.46,52.48-5.46,98,0,39-24.43,98-9.71,98,19.79,0,54.23-41.43,54.25-99.64C803.63,223.64,774.71,181.34,764.53,181.92Z"/><path id="TF-2" class="cls-1" d="M289.87,569.21c-6.43,5.36-21.13,9.93-46.51,14.65-23.72,4.41-41.68-3.91-50.67-6.67-13.44-4.13-43.33-41.33-48.67-52s-2.94-12.09-2.94-12.09-1.36-5.91-7.94-1.58C127.91,515,124,527.86,136,559.19c8.29,21.62,32.18,48.34,59.34,55.33,13.91,3.59,35.89,2.61,59.91-8.66s39-25.08,42.78-29.76"/><path id="side-spike_-_overlap" data-name="side-spike - overlap" class="cls-2" d="M289.87,569.21a65.79,65.79,0,0,1,8.18,6.89c2.3,2.53,7.37,9.1,8.75,10.89a.53.53,0,0,0,.83,0c.7-.88,1.78-3.22.41-8.64-1.88-7.46-8.62-17.42-8.62-17.42Z"/><path id="cnidoband" class="cls-11" d="M449,404.32c-8-75.46-72-91.46-83.4-156.46-8.13-46.36,17.68-102,28.54-141s13.13-89-38-103-111.55,23-121.34,121c-4.84,48.38-2.5,110.67,13.21,163,16.1,53.66,43.77,101.83,58.62,116.64C336,433.75,386.56,464.91,419,449.94S450.33,416.61,449,404.32Z"/><path class="cls-12" d="M308.7,90.86c0,13.06,137.32,5.77,171.32,1.77S617,55.86,610,34.86c-4.6-13.82-74,31-150.61,38S308.7,71.86,308.7,90.86Z"/><path class="cls-12" d="M315,113c0,13.78,141,6.08,175.86,1.86S651.71,89.5,644.52,67.36C639.8,52.79,548.3,86.58,469.7,94S315,93,315,113Z"/><path class="cls-12" d="M318.55,135c-.34,13.78,140.77,7.51,175.76,4.13s168.86-15.71,162.21-38c-4.37-14.68-104.1,11.13-182.86,16.66S319,115,318.55,135Z"/></g></g></svg>